<?xml version="1.0" encoding="UTF-8" standalone="no"?>
<svg
   version="1.1"
   id="Layer_1"
   x="0px"
   y="0px"
   width="40622.797"
   viewBox="0 0 40622.797 49368.516"
   enable-background="new 0 0 460 460"
   xml:space="preserve"
   height="49368.516"
   xmlns="http://www.w3.org/2000/svg"
   xmlns:svg="http://www.w3.org/2000/svg"><defs
   id="defs62" />







<path
   fill="#3880c2"
   opacity="1"
   stroke="none"
   d="m -220343.03,-75552.638 c 1.24,3.264 2.34,6.168 3.7,9.36 8.2,19.943 16.14,39.599 24.49,60.249 -3.86,0 -7.38,0 -10.91,0 -4.33,0 -8.66,10e-4 -12.99,0 -7.5,0 -7.41,-0.02 -9.44,-7.463 -3.3,-12.093 -6.72,-24.152 -11.24,-36.279 -1.86,6.076 -3.8,12.13 -5.58,18.232 -2.18,7.509 -4.13,15.088 -6.43,22.559 -0.37,1.191 -2.05,2.788 -3.15,2.815 -9.29,0.226 -18.58,0.128 -28.57,0.128 2.63,-6.701 5.01,-12.807 7.24,-19.275 -0.17,-0.362 -0.15,-0.3 0.16,-0.301 0.47,-0.435 0.61,-0.87 0.75,-1.306 2.65,-6.685 5.29,-13.369 7.86,-20.449 3.21,-7.571 6.67,-14.676 9.75,-21.94 6.06,-14.28 11.92,-28.649 18.3,-44.031 5.59,13.129 10.76,25.236 16.06,37.701 z"
   id="path55" />

</svg>
